<svg width="32" height="33" viewBox="0 0 32 33" fill="none" xmlns="http://www.w3.org/2000/svg">
<g id="forge-icon twitter">
<path id="Vector" d="M27.2449 7.09114C27.2449 7.04114 27.1999 7.01114 27.1599 7.04614C26.3749 7.72614 24.4799 8.27614 24.2399 8.30114C24.2328 8.30431 24.2252 8.30595 24.2174 8.30595C24.2097 8.30595 24.202 8.30431 24.1949 8.30114C22.8049 6.08114 19.5999 6.68114 19.5999 6.68114C14.8899 7.68114 15.4099 12.4411 15.4999 12.9411C15.4999 12.9661 15.4999 12.9861 15.4549 12.9861C10.2149 13.2461 5.63991 8.37614 5.11991 7.80114C5.11475 7.79486 5.10827 7.7898 5.10092 7.78632C5.09357 7.78285 5.08554 7.78105 5.07741 7.78105C5.06928 7.78105 5.06126 7.78285 5.05391 7.78632C5.04656 7.7898 5.04007 7.79486 5.03491 7.80114C4.44688 8.89127 4.26042 10.1533 4.50807 11.3669C4.75573 12.5805 5.42177 13.6686 6.38991 14.4411C6.39821 14.446 6.4051 14.4529 6.40988 14.4613C6.41467 14.4696 6.41719 14.479 6.41719 14.4886C6.41719 14.4982 6.41467 14.5077 6.40988 14.516C6.4051 14.5244 6.39821 14.5313 6.38991 14.5361C5.70703 14.5148 5.03191 14.3848 4.38991 14.1511C4.35991 14.1511 4.32491 14.1511 4.32491 14.2011C4.39491 17.3011 7.43491 18.7011 8.13991 18.9961C8.14992 18.9994 8.15863 19.0058 8.1648 19.0143C8.17098 19.0228 8.1743 19.0331 8.1743 19.0436C8.1743 19.0542 8.17098 19.0644 8.1648 19.073C8.15863 19.0815 8.14992 19.0878 8.13991 19.0911C7.50812 19.2288 6.85973 19.2743 6.21491 19.2261C6.20623 19.2258 6.1976 19.2275 6.18972 19.2312C6.18184 19.2348 6.17493 19.2403 6.16957 19.2471C6.1642 19.2539 6.16053 19.2619 6.15885 19.2705C6.15717 19.279 6.15754 19.2878 6.15991 19.2961C6.79491 21.6861 9.90991 22.6861 10.4699 22.8511C10.4793 22.8531 10.488 22.8575 10.4951 22.8639C10.5023 22.8703 10.5076 22.8785 10.5107 22.8875C10.5137 22.8966 10.5143 22.9064 10.5124 22.9158C10.5105 22.9252 10.5062 22.9339 10.4999 22.9411C8.57491 24.6611 4.77991 25.1161 3.99991 25.1961C3.98955 25.1975 3.97979 25.2018 3.97178 25.2085C3.96378 25.2153 3.95785 25.2241 3.9547 25.2341C3.95155 25.2441 3.95131 25.2547 3.95401 25.2648C3.9567 25.2749 3.96222 25.2841 3.96991 25.2911C6.87991 27.2911 14.4999 28.9511 20.3199 23.9761C22.0405 22.4766 23.4001 20.6077 24.297 18.509C25.194 16.4103 25.6052 14.136 25.4999 11.8561C25.5 11.8478 25.5023 11.8397 25.5068 11.8326C25.5112 11.8255 25.5175 11.8198 25.5249 11.8161C26.5701 11.2023 27.441 10.3313 28.0549 9.28614C28.0549 9.23614 28.0549 9.20614 27.9799 9.22114C27.4737 9.39898 26.9273 9.42847 26.4049 9.30614C26.4049 9.30614 27.2599 7.82614 27.2449 7.09114Z" stroke="#241F27" stroke-width="1.52022" stroke-linecap="round"/>
</g>
</svg>
