<svg width="40" height="41" viewBox="0 0 40 41" fill="none" xmlns="http://www.w3.org/2000/svg">
<g id="forge-icon insta">
<path id="Vector" d="M24.7937 9.07861H15.2062C11.5715 9.07861 8.625 12.0251 8.625 15.6599V26.2286C8.625 29.8633 11.5715 32.8099 15.2062 32.8099H24.7937C28.4285 32.8099 31.375 29.8633 31.375 26.2286V15.6599C31.375 12.0251 28.4285 9.07861 24.7937 9.07861Z" stroke="#241F27" stroke-width="1.875" stroke-linecap="round"/>
<path id="Vector_2" d="M20 26.7411C23.2032 26.7411 25.8 24.1444 25.8 20.9411C25.8 17.7379 23.2032 15.1411 20 15.1411C16.7967 15.1411 14.2 17.7379 14.2 20.9411C14.2 24.1444 16.7967 26.7411 20 26.7411Z" stroke="#241F27" stroke-width="1.875" stroke-linecap="round"/>
<path id="Vector_3" d="M26.9437 14.1036C27.3993 14.1036 27.7687 13.7343 27.7687 13.2786C27.7687 12.823 27.3993 12.4536 26.9437 12.4536C26.488 12.4536 26.1187 12.823 26.1187 13.2786C26.1187 13.7343 26.488 14.1036 26.9437 14.1036Z" stroke="#241F27" stroke-width="1.875"/>
</g>
</svg>
