<svg width="800" height="703" viewBox="0 0 800 703" fill="none" xmlns="http://www.w3.org/2000/svg">
<g clip-path="url(#clip0_62_72)">
<path d="M780.491 294.617C766.753 404.384 694.973 501.695 603.082 564.967C595.625 570.106 587.983 575.037 580.156 579.759C579.175 580.351 578.193 580.944 577.212 581.525C522.609 613.867 460.052 634.585 397.206 628.124C346.147 622.882 296.012 596.067 266.089 556.009C265.524 555.257 264.958 554.482 264.416 553.719C252.226 537.03 243.96 517.867 240.219 497.627C234.84 467.667 239.019 434.538 222.303 408.977C200.623 375.814 154.193 370.412 114.24 371.655C76.8946 372.806 39.6075 376.794 2.3088 378.868C1.5469 378.914 0.773449 378.948 0 378.994V26.74C0.00836155 19.8847 2.7707 13.3124 7.68109 8.46494C12.5915 3.61746 19.249 0.890518 26.1934 0.882263H188.652C196.514 1.89652 202.078 17.4636 209.916 17.9764C213.31 18.2043 216.7 18.3867 220.087 18.5234C237.899 19.2528 255.688 18.9451 273.455 17.9764C283.833 17.418 296.52 1.81674 306.886 0.882263H606.869C609.108 1.61161 611.325 2.37515 613.541 3.16148C623.091 6.55896 632.421 10.5323 641.478 15.059C741.403 65.0765 794.228 184.85 780.491 294.617Z" fill="#3F3D56"/>
<path d="M654.996 148.052C608.485 190.787 546.874 218.206 483.59 224.782C477.38 225.431 471.153 225.876 464.912 226.115C463.527 226.172 462.141 226.206 460.745 226.24C458.482 226.297 456.208 226.32 453.945 226.32C451.232 226.32 448.519 226.282 445.807 226.206C430.103 225.754 414.462 224.066 399.03 221.158C398.465 221.044 397.911 220.941 397.345 220.827C394.909 220.36 392.481 219.858 390.061 219.323C385.42 218.309 380.802 217.184 376.208 215.95C374.719 215.551 373.229 215.14 371.74 214.707C369.605 214.103 367.48 213.465 365.356 212.816C364.56 212.565 363.763 212.326 362.967 212.063C362.159 211.813 361.351 211.551 360.543 211.277C355.613 209.682 350.726 207.949 345.882 206.081C318.291 195.558 292.462 180.993 269.264 162.878C266.055 160.359 262.799 157.715 259.659 155.151C242.782 141.408 225.328 127.197 204.052 124.097C181.079 120.758 159.007 131.083 137.674 141.066C130.436 144.45 122.955 147.949 115.556 150.878C79.4333 164.924 39.6237 166.803 2.3088 156.223C1.53535 156.017 0.761905 155.79 0 155.562V153.18C0.761905 153.408 1.53535 153.636 2.3088 153.852C39.3109 164.486 78.8419 162.694 114.701 148.758C122.032 145.864 129.489 142.376 136.693 139.003C158.338 128.872 180.721 118.399 204.387 121.841C226.297 125.031 244.006 139.447 261.126 153.396C264.266 155.949 267.509 158.593 270.695 161.1C293.739 179.1 319.402 193.565 346.817 204.006H346.828C351.469 205.784 356.167 207.459 360.889 209.009C361.57 209.226 362.251 209.442 362.932 209.67C363.694 209.91 364.467 210.149 365.229 210.388C367.18 211.004 369.135 211.589 371.094 212.143C373.01 212.713 374.938 213.252 376.877 213.761H376.889C381.853 215.095 386.848 216.299 391.873 217.374C394.147 217.875 396.421 218.331 398.719 218.764C399.215 218.867 399.723 218.958 400.231 219.049C415.035 221.807 430.033 223.43 445.091 223.904H445.102C450.332 224.064 455.554 224.083 460.768 223.961C462.13 223.927 463.48 223.881 464.831 223.836C470.73 223.608 476.621 223.197 482.505 222.605H482.517C545.605 216.234 607.065 188.975 653.426 146.376C653.651 146.172 653.949 146.065 654.254 146.077C654.56 146.089 654.848 146.221 655.056 146.442C655.263 146.664 655.374 146.957 655.362 147.259C655.351 147.561 655.219 147.846 654.996 148.052Z" fill="#6C63FF"/>
<path d="M0.357862 104.518C0.286803 104.81 0.165775 105.088 0 105.339V102.159C0.421537 102.871 0.549663 103.716 0.357862 104.518Z" fill="#FF6584"/>
<path d="M9.46697 116.589C9.69859 114.543 8.71735 112.755 7.2753 112.596C5.83325 112.437 4.47647 113.967 4.24484 116.013C4.01321 118.059 4.99445 119.847 6.4365 120.006C7.87855 120.166 9.23534 118.636 9.46697 116.589Z" fill="#E6E6E6"/>
<path d="M12.6796 140.758C12.9112 138.711 11.93 136.924 10.4879 136.765C9.04589 136.605 7.68911 138.135 7.45748 140.182C7.22586 142.228 8.2071 144.016 9.64915 144.175C11.0912 144.334 12.448 142.804 12.6796 140.758Z" fill="#3F3D56"/>
<path d="M582.927 333.496C583.491 331.299 581.355 328.869 578.156 328.068C574.956 327.268 571.906 328.4 571.342 330.597C570.778 332.794 572.914 335.224 576.113 336.025C579.312 336.825 582.363 335.693 582.927 333.496Z" fill="white"/>
<path d="M543.858 333.247C544.422 331.05 542.285 328.62 539.086 327.82C535.887 327.019 532.836 328.151 532.272 330.349C531.708 332.546 533.844 334.975 537.044 335.776C540.243 336.576 543.294 335.444 543.858 333.247Z" fill="#3F3D56"/>
<path d="M590.259 365.494C590.823 363.297 588.686 360.867 585.487 360.067C582.288 359.266 579.237 360.399 578.673 362.596C578.109 364.793 580.245 367.223 583.445 368.023C586.644 368.823 589.695 367.691 590.259 365.494Z" fill="#FF6584"/>
<path d="M599.366 377.56C599.598 375.514 598.617 373.726 597.174 373.567C595.732 373.408 594.376 374.938 594.144 376.984C593.912 379.03 594.894 380.818 596.336 380.977C597.778 381.136 599.135 379.606 599.366 377.56Z" fill="#E6E6E6"/>
<path d="M602.579 401.729C602.81 399.682 601.829 397.894 600.387 397.735C598.945 397.576 597.588 399.106 597.356 401.153C597.125 403.199 598.106 404.987 599.548 405.146C600.99 405.305 602.347 403.775 602.579 401.729Z" fill="#3F3D56"/>
<path d="M562.636 355.67C562.868 353.624 561.886 351.836 560.444 351.677C559.002 351.518 557.645 353.048 557.414 355.094C557.182 357.141 558.163 358.928 559.605 359.087C561.047 359.247 562.404 357.717 562.636 355.67Z" fill="#E6E6E6"/>
<path d="M582.297 348.378C582.529 346.332 581.548 344.544 580.106 344.385C578.664 344.226 577.307 345.756 577.075 347.802C576.844 349.849 577.825 351.637 579.267 351.796C580.709 351.955 582.066 350.425 582.297 348.378Z" fill="#FF6584"/>
<path d="M558.075 328.679C558.307 326.632 557.326 324.844 555.884 324.685C554.442 324.526 553.085 326.056 552.853 328.103C552.622 330.149 553.603 331.937 555.045 332.096C556.487 332.255 557.844 330.725 558.075 328.679Z" fill="#3F3D56"/>
<path d="M57.6744 63.408C58.2384 61.2109 56.1021 58.781 52.9029 57.9806C49.7036 57.1802 46.6529 58.3125 46.0889 60.5095C45.5248 62.7066 47.6611 65.1365 50.8604 65.9369C54.0596 66.7373 57.1104 65.605 57.6744 63.408Z" fill="white"/>
<path d="M18.6053 63.1594C19.1693 60.9623 17.033 58.5324 13.8338 57.732C10.6345 56.9316 7.58378 58.0639 7.01977 60.2609C6.45576 62.458 8.59204 64.8879 11.7913 65.6883C14.9905 66.4887 18.0413 65.3564 18.6053 63.1594Z" fill="#3F3D56"/>
<path d="M65.0059 95.4064C65.57 93.2094 63.4337 90.7795 60.2344 89.9791C57.0351 89.1787 53.9844 90.3109 53.4204 92.508C52.8564 94.7051 54.9927 97.135 58.1919 97.9354C61.3912 98.7357 64.4419 97.6035 65.0059 95.4064Z" fill="#FF6584"/>
<path d="M74.1134 107.472C74.3451 105.426 73.3638 103.638 71.9218 103.479C70.4797 103.32 69.123 104.85 68.8913 106.896C68.6597 108.943 69.6409 110.731 71.083 110.89C72.525 111.049 73.8818 109.519 74.1134 107.472Z" fill="#E6E6E6"/>
<path d="M77.3261 131.641C77.5577 129.595 76.5765 127.807 75.1344 127.648C73.6924 127.489 72.3356 129.019 72.104 131.065C71.8723 133.111 72.8536 134.899 74.2956 135.058C75.7377 135.217 77.0944 133.687 77.3261 131.641Z" fill="#3F3D56"/>
<path d="M37.3835 85.5825C37.6151 83.5361 36.6338 81.7483 35.1918 81.5892C33.7497 81.4301 32.393 82.9601 32.1613 85.0065C31.9297 87.0529 32.911 88.8407 34.353 88.9998C35.7951 89.1589 37.1518 87.6289 37.3835 85.5825Z" fill="#E6E6E6"/>
<path d="M57.0448 78.2908C57.2765 76.2444 56.2952 74.4565 54.8532 74.2975C53.4111 74.1384 52.0543 75.6684 51.8227 77.7147C51.5911 79.7611 52.5723 81.549 54.0144 81.7081C55.4564 81.8671 56.8132 80.3372 57.0448 78.2908Z" fill="#FF6584"/>
<path d="M32.8229 58.5909C33.0545 56.5445 32.0733 54.7566 30.6313 54.5976C29.1892 54.4385 27.8324 55.9685 27.6008 58.0149C27.3692 60.0612 28.3504 61.8491 29.7925 62.0082C31.2345 62.1672 32.5913 60.6373 32.8229 58.5909Z" fill="#3F3D56"/>
<path d="M182.826 226.634C185.376 226.634 187.443 224.593 187.443 222.075C187.443 219.558 185.376 217.517 182.826 217.517C180.276 217.517 178.208 219.558 178.208 222.075C178.208 224.593 180.276 226.634 182.826 226.634Z" fill="white"/>
<path d="M69.6945 269.939C70.9697 269.939 72.0033 268.918 72.0033 267.66C72.0033 266.401 70.9697 265.38 69.6945 265.38C68.4194 265.38 67.3857 266.401 67.3857 267.66C67.3857 268.918 68.4194 269.939 69.6945 269.939Z" fill="white"/>
<path d="M527.992 439.741C529.267 439.741 530.3 438.72 530.3 437.462C530.3 436.203 529.267 435.182 527.992 435.182C526.717 435.182 525.683 436.203 525.683 437.462C525.683 438.72 526.717 439.741 527.992 439.741Z" fill="white"/>
<path d="M230.156 334.897C231.431 334.897 232.465 333.876 232.465 332.617C232.465 331.359 231.431 330.338 230.156 330.338C228.881 330.338 227.847 331.359 227.847 332.617C227.847 333.876 228.881 334.897 230.156 334.897Z" fill="white"/>
<path d="M271.715 96.7182C272.99 96.7182 274.023 95.6977 274.023 94.4389C274.023 93.1802 272.99 92.1597 271.715 92.1597C270.439 92.1597 269.406 93.1802 269.406 94.4389C269.406 95.6977 270.439 96.7182 271.715 96.7182Z" fill="white"/>
<path d="M649.204 184.468C650.479 184.468 651.513 183.448 651.513 182.189C651.513 180.93 650.479 179.91 649.204 179.91C647.929 179.91 646.895 180.93 646.895 182.189C646.895 183.448 647.929 184.468 649.204 184.468Z" fill="white"/>
<path d="M112.407 65.9487C113.682 65.9487 114.716 64.9283 114.716 63.6695C114.716 62.4107 113.682 61.3903 112.407 61.3903C111.132 61.3903 110.098 62.4107 110.098 63.6695C110.098 64.9283 111.132 65.9487 112.407 65.9487Z" fill="white"/>
<path d="M532.609 54.5526C535.16 54.5526 537.227 52.5117 537.227 49.9941C537.227 47.4766 535.16 45.4357 532.609 45.4357C530.059 45.4357 527.992 47.4766 527.992 49.9941C527.992 52.5117 530.059 54.5526 532.609 54.5526Z" fill="white"/>
<path d="M739.244 655.702H736.935C736.935 642.551 724.456 629.685 699.833 617.457C675.74 605.491 641.201 594.733 597.195 585.491C590.684 584.123 584.023 582.802 577.212 581.525C541.98 574.915 502.834 569.502 460.906 565.388C452.237 564.534 443.444 563.74 434.528 563.007C431.642 562.756 428.733 562.528 425.812 562.289C417.697 561.662 409.497 561.077 401.212 560.534C357.968 557.707 312.566 556.169 266.09 556.009C263.354 555.987 260.606 555.986 257.859 555.986C197.333 555.986 183.665 561.628 182.857 566.368C180.791 578.357 250.794 602.437 318.488 625.742C393.42 651.52 470.43 678.027 496.658 700.603C497.547 701.367 498.378 702.13 499.152 702.882H495.977C495.134 702.13 494.222 701.367 493.253 700.603C465.559 678.768 387.879 652.033 317.726 627.885C231.215 598.118 178.309 579.2 180.571 565.981C181.553 560.26 191.227 553.707 257.859 553.707C260.04 553.707 262.234 553.707 264.416 553.719C310.88 553.844 356.283 555.348 399.573 558.152C408.035 558.687 416.412 559.28 424.704 559.93C427.786 560.169 430.857 560.408 433.916 560.67C443.059 561.423 452.083 562.235 460.987 563.109C504.023 567.326 544.162 572.91 580.156 579.759C586.113 580.898 591.954 582.068 597.68 583.269C688.97 602.437 739.244 628.158 739.244 655.702Z" fill="#E6E6E6"/>
<path d="M703.461 650.208H701.152C701.152 640.476 660.877 630.056 600.921 630.056C540.966 630.056 500.691 640.476 500.691 650.208H498.383C498.383 636.167 550.518 627.777 600.921 627.777C651.325 627.777 703.461 636.167 703.461 650.208Z" fill="#E6E6E6"/>
<path d="M663.175 656.837H660.867C660.867 651.34 636.386 645.215 601.257 645.215C566.129 645.215 541.648 651.34 541.648 656.837H539.339C539.339 647.808 571.24 642.935 601.257 642.935C631.274 642.935 663.175 647.808 663.175 656.837Z" fill="#E6E6E6"/>
<path d="M416.015 153.699C441.517 153.699 462.191 133.29 462.191 108.114C462.191 82.9387 441.517 62.5298 416.015 62.5298C390.513 62.5298 369.839 82.9387 369.839 108.114C369.839 133.29 390.513 153.699 416.015 153.699Z" fill="#F2F2F2"/>
<path d="M409.088 157.118C434.591 157.118 455.264 136.709 455.264 111.533C455.264 86.3575 434.591 65.9487 409.088 65.9487C383.586 65.9487 362.912 86.3575 362.912 111.533C362.912 136.709 383.586 157.118 409.088 157.118Z" fill="#F2F2F2"/>
<path d="M459.881 610.62L416.6 610.618V610.078C416.601 605.668 418.376 601.438 421.535 598.319C424.694 595.2 428.979 593.448 433.447 593.448L441.353 587.527L456.104 593.449L459.882 593.449L459.881 610.62Z" fill="#F2F2F2"/>
<path d="M439.733 587.543L402.755 609.746L402.47 609.284C400.149 605.516 399.439 600.992 400.496 596.706C401.553 592.421 404.292 588.726 408.109 586.434L411.747 577.319L427.467 574.811L430.695 572.873L439.733 587.543Z" fill="#F2F2F2"/>
<path d="M465.158 466.487C464.961 467.855 464.673 472.505 464.338 479.274C462.71 512.095 459.882 594.728 459.882 594.728L442.254 589.315C442.254 589.315 421.29 526.887 424.754 492.699L422.26 480.801L417.989 460.47V460.459L404.979 398.544C404.979 398.544 402.127 415.319 401.896 419.251C401.666 423.182 399.357 424.322 398.202 424.322C392.419 424.322 394.197 423.308 395.039 428.949C395.651 433.006 390.641 456.265 387.778 468.983C386.67 473.929 385.885 477.28 385.885 477.28L390.78 487.696L431.357 574.078L416.015 582.192L354.808 492.641L348.771 483.81L347.478 473.906L337.296 395.991C337.296 395.991 334.122 387.182 337.296 386.954C340.482 386.715 342.283 387.706 341.383 384.367C340.482 381.017 358.953 325.176 358.953 325.176L454.768 345.689C454.768 345.689 464.211 364.219 460.54 373.04C456.858 381.86 463.553 450.168 459.732 453.2C455.922 456.231 453.464 453.804 458.728 459.012C459.533 459.841 460.483 460.521 461.533 461.017C464.788 462.476 466.081 460.106 465.158 466.487Z" fill="#F2F2F2"/>
<path d="M408.788 139.933C423.487 139.933 435.404 128.169 435.404 113.658C435.404 99.147 423.487 87.3835 408.788 87.3835C394.089 87.3835 382.173 99.147 382.173 113.658C382.173 128.169 394.089 139.933 408.788 139.933Z" fill="#A0616A"/>
<path d="M429.529 136.286L418.978 138.281C418.978 138.281 428.79 122.645 428.213 115.489C427.636 108.332 419.74 105.768 419.74 105.768C419.74 105.768 415.365 106.702 410.759 107.226C410.207 105.693 409.491 104.222 408.623 102.839C408.452 104.625 407.651 106.295 406.36 107.557C404.672 107.7 402.972 107.506 401.362 106.987C399.538 106.167 399.572 104.742 400.173 103.409C394.228 103.893 388.426 105.466 383.065 108.047C382.799 104.548 382.935 101.031 383.469 97.5625C383.723 97.4941 383.976 97.4144 384.23 97.3346C385.804 96.8432 387.321 96.1901 388.756 95.3859C387.159 95.1766 385.666 94.4838 384.484 93.4029C385.454 90.5995 387.001 88.1721 389.437 86.9869C391.787 85.8523 394.356 85.2295 396.972 85.1607C399.587 85.0919 402.186 85.5787 404.594 86.5881C404.594 86.5881 398.949 82.5197 401.027 80.8558C401.166 80.9926 401.304 81.1179 401.454 81.2433C401.65 81.4028 401.87 81.5738 402.077 81.7333C403.359 82.759 405.275 81.3117 405.529 79.7618C405.556 79.5661 405.595 79.372 405.645 79.1806C405.679 79.0211 405.725 78.8615 405.772 78.7134C405.811 78.5819 405.857 78.4525 405.91 78.3259C409.754 77.4142 421.379 81.1179 425.847 89.2775C425.847 89.2775 457.073 104.093 429.529 136.286Z" fill="#3F3D56"/>
<path d="M419.888 370.545C419.503 367.92 420.17 365.251 421.749 363.105C423.327 360.959 425.691 359.505 428.339 359.054C428.878 358.97 429.424 358.931 429.97 358.937L457.799 295.139L476.89 309.288L439.72 369.727C439.522 371.96 438.58 374.066 437.042 375.716C435.503 377.366 433.455 378.467 431.217 378.846C429.941 379.05 428.637 379.004 427.379 378.711C426.121 378.417 424.934 377.882 423.886 377.136C422.837 376.389 421.948 375.447 421.269 374.361C420.59 373.275 420.134 372.068 419.927 370.809C419.913 370.721 419.9 370.633 419.888 370.545Z" fill="#6C63FF"/>
<path d="M341.93 375.745C343.803 373.844 344.85 371.296 344.849 368.644C344.847 365.992 343.798 363.445 341.924 361.545C341.536 361.165 341.118 360.817 340.673 360.505L356.089 292.731L332.22 293.12L326.363 363.588C325.195 365.511 324.704 367.761 324.968 369.988C325.232 372.216 326.236 374.294 327.822 375.899C328.733 376.803 329.816 377.522 331.009 378.013C332.202 378.505 333.481 378.76 334.774 378.763C336.066 378.767 337.347 378.519 338.542 378.034C339.738 377.549 340.825 376.836 341.741 375.936C341.805 375.873 341.868 375.81 341.93 375.745Z" fill="#6C63FF"/>
<path d="M495.749 262.292C492.286 266.851 487.669 261.711 492.286 268.275C495.461 272.788 477.267 315.09 465.62 341.005C460.355 352.731 456.419 361.108 456.419 361.108L436.783 349.882L434.485 348.572C434.485 348.572 452.494 303.831 458.289 287.751C459.247 285.084 459.882 283.204 460.032 282.452C461.117 277.107 461.256 272.526 460.032 270.828C459.743 270.195 459.496 269.544 459.293 268.879C456.973 262.167 449.908 239.5 443.293 218.064C441.366 211.773 439.461 205.596 437.729 199.955C433.285 185.471 429.948 174.542 429.948 174.542L456.5 175.682C456.5 175.682 456.938 176.411 457.712 177.733C459.559 180.878 463.345 187.363 467.732 195.158C470.895 200.765 474.381 207.067 477.671 213.266C486.052 229.038 493.267 244.229 491.132 246.338C486.514 250.896 481.793 248.309 487.611 254.155C493.441 260.013 499.213 257.734 495.749 262.292Z" fill="#F2F2F2"/>
<path d="M464 322.898C457.073 316.128 458.354 285.279 458.354 285.279C458.354 285.279 465.246 181.688 455.919 174.748C449.469 170.153 442.606 166.151 435.417 162.794C435.001 162.611 434.782 162.509 434.782 162.509L428.825 145.927L392.127 144.047L385.72 156.332C385.72 156.332 384.715 156.4 383.145 156.617C377.281 157.415 363.497 160.241 364.721 169.05C366.268 180.218 355.347 248.812 352.023 252.242C348.698 255.672 349.575 268.208 357.795 276.174C366.014 284.139 360.103 305.803 354.331 314.92C350.867 320.501 349.268 327.015 349.76 333.541C349.76 333.541 354.331 358.226 365.875 350.248C370.274 347.205 376.519 346.818 384.034 347.376C384.107 347.382 384.187 347.391 384.26 347.397L384.034 348.516C394.47 349.28 407.365 351.866 421.16 351.718L420.751 350.574C420.888 350.573 421.022 350.58 421.16 350.579C423.492 350.556 425.835 350.453 428.213 350.248C448.785 348.482 457.87 354.066 460.536 347.969C463.203 341.872 470.926 329.667 464 322.898Z" fill="#F2F2F2"/>
<path opacity="0.3" d="M409.088 145.721C428.215 145.721 443.72 130.415 443.72 111.533C443.72 92.6514 428.215 77.3448 409.088 77.3448C389.962 77.3448 374.456 92.6514 374.456 111.533C374.456 130.415 389.962 145.721 409.088 145.721Z" fill="#6C63FF"/>
<path d="M392.43 163.146C392.43 163.146 387.166 180.4 381.036 200.309C379.109 206.577 377.088 213.106 375.126 219.454C368.719 240.093 362.878 258.691 362.335 259.432C361.112 261.13 361.262 265.711 362.335 271.056C362.555 272.127 362.058 276.298 361.123 282.281C359.899 290.133 357.925 301.096 355.824 312.287C354.15 321.233 352.396 330.315 350.884 338.053C348.517 350.065 346.751 358.829 346.751 358.829H324.817C324.817 358.829 328.938 267.99 333.556 261.438C338.174 254.873 333.556 260.013 330.093 255.455C326.63 250.896 332.402 253.175 338.22 247.318C344.038 241.472 339.328 244.058 334.71 239.5C333.002 237.813 336.823 227.067 342.318 214.201C344.881 208.229 347.801 201.79 350.687 195.591C356.656 182.793 362.508 171.021 364.829 166.371C364.829 166.36 364.84 166.348 364.84 166.337L365.879 164.286L392.43 163.146Z" fill="#F2F2F2"/>
<path d="M440.257 167.374C416.154 176.616 394.484 178.209 376.765 167.374V146.861C397.633 159.222 418.805 158.884 440.257 146.861V167.374Z" fill="#3F3D56"/>
<path d="M458.728 298.429C421.478 307.671 387.987 309.264 360.604 298.429V277.916C392.854 290.277 425.575 289.939 458.728 277.916V298.429Z" fill="#3F3D56"/>
<path d="M465.158 466.488C464.961 467.855 464.673 472.505 464.338 479.274C450.43 481.499 436.296 482.012 422.26 480.801L417.989 460.47C432.37 463.062 447.09 463.247 461.533 461.017C464.788 462.476 466.081 460.106 465.158 466.488Z" fill="#3F3D56"/>
<path d="M390.78 487.696C378.943 490.296 366.914 491.95 354.809 492.641L348.771 483.809L347.478 473.906C361.085 474.252 374.668 472.593 387.778 468.983C386.67 473.929 385.885 477.28 385.885 477.28L390.78 487.696Z" fill="#3F3D56"/>
<path d="M394.081 210.679C394.081 213.702 392.865 216.6 390.7 218.738C388.535 220.875 385.599 222.075 382.537 222.075C379.476 222.075 376.539 220.875 374.374 218.738C372.209 216.6 370.993 213.702 370.993 210.679C370.993 204.385 381.383 191.306 382.537 199.283C383.692 207.26 394.081 204.385 394.081 210.679Z" fill="#6C63FF"/>
<path d="M383.792 191.357C383.377 191.323 382.961 191.311 382.534 191.311C377.509 191.317 372.676 193.224 369.031 196.638C365.385 200.053 363.203 204.716 362.932 209.67C362.921 210.001 362.909 210.343 362.909 210.685C362.909 211.152 362.921 211.608 362.967 212.063C363.257 216.12 364.834 219.984 367.474 223.105C370.115 226.227 373.683 228.449 377.675 229.456C381.666 230.462 385.877 230.202 389.711 228.713C393.544 227.223 396.805 224.58 399.03 221.158C399.478 220.482 399.879 219.778 400.231 219.049C401.619 216.192 402.275 213.042 402.142 209.876C402.009 206.709 401.09 203.624 399.467 200.89C397.845 198.156 395.567 195.857 392.833 194.195C390.1 192.532 386.996 191.558 383.792 191.357ZM397.345 220.827C395.534 222.977 393.272 224.712 390.714 225.912C388.157 227.112 385.366 227.749 382.534 227.779C378.317 227.773 374.248 226.25 371.086 223.496C367.924 220.742 365.888 216.945 365.357 212.816C365.264 212.109 365.217 211.397 365.218 210.685C365.216 210.586 365.22 210.487 365.23 210.388C365.309 205.908 367.166 201.638 370.403 198.497C373.639 195.355 377.995 193.593 382.534 193.59C382.638 193.864 382.742 194.126 382.857 194.377C387.787 205.887 398.476 205.021 399.85 210.685C400.515 213.422 400.111 216.307 398.719 218.764C398.327 219.493 397.868 220.184 397.345 220.827Z" fill="#6C63FF"/>
<path d="M773.807 0.882263H26.1934C19.249 0.890518 12.5915 3.61746 7.68109 8.46494C2.7707 13.3124 0.00836155 19.8847 0 26.74V677.025C0.00836155 683.88 2.7707 690.452 7.68109 695.3C12.5915 700.147 19.249 702.874 26.1934 702.882H773.807C780.751 702.874 787.409 700.147 792.319 695.3C797.229 690.452 799.992 683.88 800 677.025V26.74C799.992 19.8847 797.229 13.3124 792.319 8.46494C787.409 3.61746 780.751 0.890518 773.807 0.882263ZM797.691 677.025C797.685 683.276 795.166 689.269 790.688 693.69C786.211 698.11 780.139 700.597 773.807 700.603H26.1934C19.8608 700.597 13.7895 698.11 9.31169 693.69C4.8339 689.269 2.31539 683.276 2.3088 677.025V26.74C2.31538 20.4886 4.83389 14.4951 9.31169 10.0746C13.7895 5.65422 19.8608 3.16797 26.1934 3.16148H773.807C780.139 3.16797 786.211 5.65422 790.688 10.0746C795.166 14.4951 797.685 20.4886 797.691 26.74V677.025Z" fill="#3F3D56"/>
</g>
<defs>
<clipPath id="clip0_62_72">
<rect width="800" height="702" fill="white" transform="translate(0 0.882263)"/>
</clipPath>
</defs>
</svg>
